<mxfile host="app.diagrams.net" modified="2024-01-12T09:54:55.209Z" agent="Mozilla/5.0 (Windows NT 10.0; Win64; x64) AppleWebKit/537.36 (KHTML, like Gecko) Chrome/120.0.0.0 Safari/537.36" etag="qlbz8V7naM7B4x65c5ck" version="22.1.17" type="device">
  <diagram name="Page-1" id="NN_PEb9k-mWIl5g0NICY">
    <mxGraphModel dx="2120" dy="1025" grid="1" gridSize="10" guides="1" tooltips="1" connect="1" arrows="1" fold="1" page="1" pageScale="1" pageWidth="850" pageHeight="1100" math="0" shadow="0">
      <root>
        <mxCell id="0" />
        <mxCell id="1" parent="0" />
        <mxCell id="WuLsnD5xsuXK1wEOm7aO-1" value="WShoppingManager" style="swimlane;fontStyle=1;align=center;verticalAlign=top;childLayout=stackLayout;horizontal=1;startSize=26;horizontalStack=0;resizeParent=1;resizeParentMax=0;resizeLast=0;collapsible=1;marginBottom=0;whiteSpace=wrap;html=1;" vertex="1" parent="1">
          <mxGeometry x="130" y="480" width="270" height="268" as="geometry" />
        </mxCell>
        <mxCell id="WuLsnD5xsuXK1wEOm7aO-2" value=" - productList: List&amp;lt;Product&amp;gt;" style="text;strokeColor=none;fillColor=none;align=left;verticalAlign=top;spacingLeft=4;spacingRight=4;overflow=hidden;rotatable=0;points=[[0,0.5],[1,0.5]];portConstraint=eastwest;whiteSpace=wrap;html=1;" vertex="1" parent="WuLsnD5xsuXK1wEOm7aO-1">
          <mxGeometry y="26" width="270" height="26" as="geometry" />
        </mxCell>
        <mxCell id="WuLsnD5xsuXK1wEOm7aO-3" value="" style="line;strokeWidth=1;fillColor=none;align=left;verticalAlign=middle;spacingTop=-1;spacingLeft=3;spacingRight=3;rotatable=0;labelPosition=right;points=[];portConstraint=eastwest;strokeColor=inherit;" vertex="1" parent="WuLsnD5xsuXK1wEOm7aO-1">
          <mxGeometry y="52" width="270" height="8" as="geometry" />
        </mxCell>
        <mxCell id="WuLsnD5xsuXK1wEOm7aO-4" value="+ display_Menu(): void" style="text;strokeColor=none;fillColor=none;align=left;verticalAlign=top;spacingLeft=4;spacingRight=4;overflow=hidden;rotatable=0;points=[[0,0.5],[1,0.5]];portConstraint=eastwest;whiteSpace=wrap;html=1;" vertex="1" parent="WuLsnD5xsuXK1wEOm7aO-1">
          <mxGeometry y="60" width="270" height="26" as="geometry" />
        </mxCell>
        <mxCell id="WuLsnD5xsuXK1wEOm7aO-54" value=" + addProductToCart(): void" style="text;strokeColor=none;fillColor=none;align=left;verticalAlign=top;spacingLeft=4;spacingRight=4;overflow=hidden;rotatable=0;points=[[0,0.5],[1,0.5]];portConstraint=eastwest;whiteSpace=wrap;html=1;" vertex="1" parent="WuLsnD5xsuXK1wEOm7aO-1">
          <mxGeometry y="86" width="270" height="26" as="geometry" />
        </mxCell>
        <mxCell id="WuLsnD5xsuXK1wEOm7aO-55" value=" + deleteTheProduct(): void" style="text;strokeColor=none;fillColor=none;align=left;verticalAlign=top;spacingLeft=4;spacingRight=4;overflow=hidden;rotatable=0;points=[[0,0.5],[1,0.5]];portConstraint=eastwest;whiteSpace=wrap;html=1;" vertex="1" parent="WuLsnD5xsuXK1wEOm7aO-1">
          <mxGeometry y="112" width="270" height="26" as="geometry" />
        </mxCell>
        <mxCell id="WuLsnD5xsuXK1wEOm7aO-56" value="+ printProducts(): void" style="text;strokeColor=none;fillColor=none;align=left;verticalAlign=top;spacingLeft=4;spacingRight=4;overflow=hidden;rotatable=0;points=[[0,0.5],[1,0.5]];portConstraint=eastwest;whiteSpace=wrap;html=1;" vertex="1" parent="WuLsnD5xsuXK1wEOm7aO-1">
          <mxGeometry y="138" width="270" height="26" as="geometry" />
        </mxCell>
        <mxCell id="WuLsnD5xsuXK1wEOm7aO-57" value=" + saveProductToFile(): void" style="text;strokeColor=none;fillColor=none;align=left;verticalAlign=top;spacingLeft=4;spacingRight=4;overflow=hidden;rotatable=0;points=[[0,0.5],[1,0.5]];portConstraint=eastwest;whiteSpace=wrap;html=1;" vertex="1" parent="WuLsnD5xsuXK1wEOm7aO-1">
          <mxGeometry y="164" width="270" height="26" as="geometry" />
        </mxCell>
        <mxCell id="WuLsnD5xsuXK1wEOm7aO-58" value="+ displayGUI(): void" style="text;strokeColor=none;fillColor=none;align=left;verticalAlign=top;spacingLeft=4;spacingRight=4;overflow=hidden;rotatable=0;points=[[0,0.5],[1,0.5]];portConstraint=eastwest;whiteSpace=wrap;html=1;" vertex="1" parent="WuLsnD5xsuXK1wEOm7aO-1">
          <mxGeometry y="190" width="270" height="26" as="geometry" />
        </mxCell>
        <mxCell id="WuLsnD5xsuXK1wEOm7aO-59" value=" + setElectronics(electronics: Electronics): void" style="text;strokeColor=none;fillColor=none;align=left;verticalAlign=top;spacingLeft=4;spacingRight=4;overflow=hidden;rotatable=0;points=[[0,0.5],[1,0.5]];portConstraint=eastwest;whiteSpace=wrap;html=1;" vertex="1" parent="WuLsnD5xsuXK1wEOm7aO-1">
          <mxGeometry y="216" width="270" height="26" as="geometry" />
        </mxCell>
        <mxCell id="WuLsnD5xsuXK1wEOm7aO-60" value="+ setClothing(clothing: Clothing): void" style="text;strokeColor=none;fillColor=none;align=left;verticalAlign=top;spacingLeft=4;spacingRight=4;overflow=hidden;rotatable=0;points=[[0,0.5],[1,0.5]];portConstraint=eastwest;whiteSpace=wrap;html=1;" vertex="1" parent="WuLsnD5xsuXK1wEOm7aO-1">
          <mxGeometry y="242" width="270" height="26" as="geometry" />
        </mxCell>
        <mxCell id="WuLsnD5xsuXK1wEOm7aO-6" value="ShoppingCart" style="swimlane;fontStyle=1;align=center;verticalAlign=top;childLayout=stackLayout;horizontal=1;startSize=26;horizontalStack=0;resizeParent=1;resizeParentMax=0;resizeLast=0;collapsible=1;marginBottom=0;whiteSpace=wrap;html=1;" vertex="1" parent="1">
          <mxGeometry x="380" y="280" width="300" height="112" as="geometry" />
        </mxCell>
        <mxCell id="WuLsnD5xsuXK1wEOm7aO-7" value="- items: List&amp;lt;Product&amp;gt;" style="text;strokeColor=none;fillColor=none;align=left;verticalAlign=top;spacingLeft=4;spacingRight=4;overflow=hidden;rotatable=0;points=[[0,0.5],[1,0.5]];portConstraint=eastwest;whiteSpace=wrap;html=1;" vertex="1" parent="WuLsnD5xsuXK1wEOm7aO-6">
          <mxGeometry y="26" width="300" height="26" as="geometry" />
        </mxCell>
        <mxCell id="WuLsnD5xsuXK1wEOm7aO-8" value="" style="line;strokeWidth=1;fillColor=none;align=left;verticalAlign=middle;spacingTop=-1;spacingLeft=3;spacingRight=3;rotatable=0;labelPosition=right;points=[];portConstraint=eastwest;strokeColor=inherit;" vertex="1" parent="WuLsnD5xsuXK1wEOm7aO-6">
          <mxGeometry y="52" width="300" height="8" as="geometry" />
        </mxCell>
        <mxCell id="WuLsnD5xsuXK1wEOm7aO-9" value=" + addProductToCart(product: Product): void" style="text;strokeColor=none;fillColor=none;align=left;verticalAlign=top;spacingLeft=4;spacingRight=4;overflow=hidden;rotatable=0;points=[[0,0.5],[1,0.5]];portConstraint=eastwest;whiteSpace=wrap;html=1;" vertex="1" parent="WuLsnD5xsuXK1wEOm7aO-6">
          <mxGeometry y="60" width="300" height="26" as="geometry" />
        </mxCell>
        <mxCell id="WuLsnD5xsuXK1wEOm7aO-42" value="+ deleteTheProduct(product: Product): void" style="text;strokeColor=none;fillColor=none;align=left;verticalAlign=top;spacingLeft=4;spacingRight=4;overflow=hidden;rotatable=0;points=[[0,0.5],[1,0.5]];portConstraint=eastwest;whiteSpace=wrap;html=1;" vertex="1" parent="WuLsnD5xsuXK1wEOm7aO-6">
          <mxGeometry y="86" width="300" height="26" as="geometry" />
        </mxCell>
        <mxCell id="WuLsnD5xsuXK1wEOm7aO-10" value="User" style="swimlane;fontStyle=1;align=center;verticalAlign=top;childLayout=stackLayout;horizontal=1;startSize=26;horizontalStack=0;resizeParent=1;resizeParentMax=0;resizeLast=0;collapsible=1;marginBottom=0;whiteSpace=wrap;html=1;" vertex="1" parent="1">
          <mxGeometry x="780" y="150" width="160" height="138" as="geometry" />
        </mxCell>
        <mxCell id="WuLsnD5xsuXK1wEOm7aO-11" value="- username: String" style="text;strokeColor=none;fillColor=none;align=left;verticalAlign=top;spacingLeft=4;spacingRight=4;overflow=hidden;rotatable=0;points=[[0,0.5],[1,0.5]];portConstraint=eastwest;whiteSpace=wrap;html=1;" vertex="1" parent="WuLsnD5xsuXK1wEOm7aO-10">
          <mxGeometry y="26" width="160" height="26" as="geometry" />
        </mxCell>
        <mxCell id="WuLsnD5xsuXK1wEOm7aO-13" value="- password: String" style="text;strokeColor=none;fillColor=none;align=left;verticalAlign=top;spacingLeft=4;spacingRight=4;overflow=hidden;rotatable=0;points=[[0,0.5],[1,0.5]];portConstraint=eastwest;whiteSpace=wrap;html=1;" vertex="1" parent="WuLsnD5xsuXK1wEOm7aO-10">
          <mxGeometry y="52" width="160" height="26" as="geometry" />
        </mxCell>
        <mxCell id="WuLsnD5xsuXK1wEOm7aO-12" value="" style="line;strokeWidth=1;fillColor=none;align=left;verticalAlign=middle;spacingTop=-1;spacingLeft=3;spacingRight=3;rotatable=0;labelPosition=right;points=[];portConstraint=eastwest;strokeColor=inherit;" vertex="1" parent="WuLsnD5xsuXK1wEOm7aO-10">
          <mxGeometry y="78" width="160" height="8" as="geometry" />
        </mxCell>
        <mxCell id="WuLsnD5xsuXK1wEOm7aO-62" value="+ getUsername(): String" style="text;strokeColor=none;fillColor=none;align=left;verticalAlign=top;spacingLeft=4;spacingRight=4;overflow=hidden;rotatable=0;points=[[0,0.5],[1,0.5]];portConstraint=eastwest;whiteSpace=wrap;html=1;" vertex="1" parent="WuLsnD5xsuXK1wEOm7aO-10">
          <mxGeometry y="86" width="160" height="26" as="geometry" />
        </mxCell>
        <mxCell id="WuLsnD5xsuXK1wEOm7aO-63" value="+ getPassword(): String" style="text;strokeColor=none;fillColor=none;align=left;verticalAlign=top;spacingLeft=4;spacingRight=4;overflow=hidden;rotatable=0;points=[[0,0.5],[1,0.5]];portConstraint=eastwest;whiteSpace=wrap;html=1;" vertex="1" parent="WuLsnD5xsuXK1wEOm7aO-10">
          <mxGeometry y="112" width="160" height="26" as="geometry" />
        </mxCell>
        <mxCell id="WuLsnD5xsuXK1wEOm7aO-14" value="Clothing" style="swimlane;fontStyle=1;align=center;verticalAlign=top;childLayout=stackLayout;horizontal=1;startSize=26;horizontalStack=0;resizeParent=1;resizeParentMax=0;resizeLast=0;collapsible=1;marginBottom=0;whiteSpace=wrap;html=1;" vertex="1" parent="1">
          <mxGeometry x="80" y="900" width="160" height="78" as="geometry" />
        </mxCell>
        <mxCell id="WuLsnD5xsuXK1wEOm7aO-15" value="- size: String" style="text;strokeColor=none;fillColor=none;align=left;verticalAlign=top;spacingLeft=4;spacingRight=4;overflow=hidden;rotatable=0;points=[[0,0.5],[1,0.5]];portConstraint=eastwest;whiteSpace=wrap;html=1;" vertex="1" parent="WuLsnD5xsuXK1wEOm7aO-14">
          <mxGeometry y="26" width="160" height="26" as="geometry" />
        </mxCell>
        <mxCell id="WuLsnD5xsuXK1wEOm7aO-17" value="- color: String" style="text;strokeColor=none;fillColor=none;align=left;verticalAlign=top;spacingLeft=4;spacingRight=4;overflow=hidden;rotatable=0;points=[[0,0.5],[1,0.5]];portConstraint=eastwest;whiteSpace=wrap;html=1;" vertex="1" parent="WuLsnD5xsuXK1wEOm7aO-14">
          <mxGeometry y="52" width="160" height="26" as="geometry" />
        </mxCell>
        <mxCell id="WuLsnD5xsuXK1wEOm7aO-18" value="Electronics" style="swimlane;fontStyle=1;align=center;verticalAlign=top;childLayout=stackLayout;horizontal=1;startSize=26;horizontalStack=0;resizeParent=1;resizeParentMax=0;resizeLast=0;collapsible=1;marginBottom=0;whiteSpace=wrap;html=1;" vertex="1" parent="1">
          <mxGeometry x="290" y="900" width="160" height="78" as="geometry" />
        </mxCell>
        <mxCell id="WuLsnD5xsuXK1wEOm7aO-19" value="- brand: String" style="text;strokeColor=none;fillColor=none;align=left;verticalAlign=top;spacingLeft=4;spacingRight=4;overflow=hidden;rotatable=0;points=[[0,0.5],[1,0.5]];portConstraint=eastwest;whiteSpace=wrap;html=1;" vertex="1" parent="WuLsnD5xsuXK1wEOm7aO-18">
          <mxGeometry y="26" width="160" height="26" as="geometry" />
        </mxCell>
        <mxCell id="WuLsnD5xsuXK1wEOm7aO-21" value="- warrantyPeriod: int" style="text;strokeColor=none;fillColor=none;align=left;verticalAlign=top;spacingLeft=4;spacingRight=4;overflow=hidden;rotatable=0;points=[[0,0.5],[1,0.5]];portConstraint=eastwest;whiteSpace=wrap;html=1;" vertex="1" parent="WuLsnD5xsuXK1wEOm7aO-18">
          <mxGeometry y="52" width="160" height="26" as="geometry" />
        </mxCell>
        <mxCell id="WuLsnD5xsuXK1wEOm7aO-22" value="Product" style="swimlane;fontStyle=1;align=center;verticalAlign=top;childLayout=stackLayout;horizontal=1;startSize=26;horizontalStack=0;resizeParent=1;resizeParentMax=0;resizeLast=0;collapsible=1;marginBottom=0;whiteSpace=wrap;html=1;" vertex="1" parent="1">
          <mxGeometry x="480" y="480" width="200" height="242" as="geometry" />
        </mxCell>
        <mxCell id="WuLsnD5xsuXK1wEOm7aO-23" value=" - Product_Id: String" style="text;strokeColor=none;fillColor=none;align=left;verticalAlign=top;spacingLeft=4;spacingRight=4;overflow=hidden;rotatable=0;points=[[0,0.5],[1,0.5]];portConstraint=eastwest;whiteSpace=wrap;html=1;" vertex="1" parent="WuLsnD5xsuXK1wEOm7aO-22">
          <mxGeometry y="26" width="200" height="26" as="geometry" />
        </mxCell>
        <mxCell id="WuLsnD5xsuXK1wEOm7aO-44" value="- Product_name: String" style="text;strokeColor=none;fillColor=none;align=left;verticalAlign=top;spacingLeft=4;spacingRight=4;overflow=hidden;rotatable=0;points=[[0,0.5],[1,0.5]];portConstraint=eastwest;whiteSpace=wrap;html=1;" vertex="1" parent="WuLsnD5xsuXK1wEOm7aO-22">
          <mxGeometry y="52" width="200" height="26" as="geometry" />
        </mxCell>
        <mxCell id="WuLsnD5xsuXK1wEOm7aO-45" value=" - Available_items: int" style="text;strokeColor=none;fillColor=none;align=left;verticalAlign=top;spacingLeft=4;spacingRight=4;overflow=hidden;rotatable=0;points=[[0,0.5],[1,0.5]];portConstraint=eastwest;whiteSpace=wrap;html=1;" vertex="1" parent="WuLsnD5xsuXK1wEOm7aO-22">
          <mxGeometry y="78" width="200" height="26" as="geometry" />
        </mxCell>
        <mxCell id="WuLsnD5xsuXK1wEOm7aO-46" value="- Product_price: double" style="text;strokeColor=none;fillColor=none;align=left;verticalAlign=top;spacingLeft=4;spacingRight=4;overflow=hidden;rotatable=0;points=[[0,0.5],[1,0.5]];portConstraint=eastwest;whiteSpace=wrap;html=1;" vertex="1" parent="WuLsnD5xsuXK1wEOm7aO-22">
          <mxGeometry y="104" width="200" height="26" as="geometry" />
        </mxCell>
        <mxCell id="WuLsnD5xsuXK1wEOm7aO-49" value="" style="line;strokeWidth=1;fillColor=none;align=left;verticalAlign=middle;spacingTop=-1;spacingLeft=3;spacingRight=3;rotatable=0;labelPosition=right;points=[];portConstraint=eastwest;strokeColor=inherit;" vertex="1" parent="WuLsnD5xsuXK1wEOm7aO-22">
          <mxGeometry y="130" width="200" height="8" as="geometry" />
        </mxCell>
        <mxCell id="WuLsnD5xsuXK1wEOm7aO-47" value=" + getProduct_id(): String" style="text;strokeColor=none;fillColor=none;align=left;verticalAlign=top;spacingLeft=4;spacingRight=4;overflow=hidden;rotatable=0;points=[[0,0.5],[1,0.5]];portConstraint=eastwest;whiteSpace=wrap;html=1;" vertex="1" parent="WuLsnD5xsuXK1wEOm7aO-22">
          <mxGeometry y="138" width="200" height="26" as="geometry" />
        </mxCell>
        <mxCell id="WuLsnD5xsuXK1wEOm7aO-48" value="  + getProduct_name(): String&lt;br/&gt;&lt;br/&gt;" style="text;strokeColor=none;fillColor=none;align=left;verticalAlign=top;spacingLeft=4;spacingRight=4;overflow=hidden;rotatable=0;points=[[0,0.5],[1,0.5]];portConstraint=eastwest;whiteSpace=wrap;html=1;" vertex="1" parent="WuLsnD5xsuXK1wEOm7aO-22">
          <mxGeometry y="164" width="200" height="26" as="geometry" />
        </mxCell>
        <mxCell id="WuLsnD5xsuXK1wEOm7aO-50" value="  + getAvailable_items(): int&lt;br/&gt;&lt;br/&gt;" style="text;strokeColor=none;fillColor=none;align=left;verticalAlign=top;spacingLeft=4;spacingRight=4;overflow=hidden;rotatable=0;points=[[0,0.5],[1,0.5]];portConstraint=eastwest;whiteSpace=wrap;html=1;" vertex="1" parent="WuLsnD5xsuXK1wEOm7aO-22">
          <mxGeometry y="190" width="200" height="26" as="geometry" />
        </mxCell>
        <mxCell id="WuLsnD5xsuXK1wEOm7aO-51" value="+ getProduct_price(): double" style="text;strokeColor=none;fillColor=none;align=left;verticalAlign=top;spacingLeft=4;spacingRight=4;overflow=hidden;rotatable=0;points=[[0,0.5],[1,0.5]];portConstraint=eastwest;whiteSpace=wrap;html=1;" vertex="1" parent="WuLsnD5xsuXK1wEOm7aO-22">
          <mxGeometry y="216" width="200" height="26" as="geometry" />
        </mxCell>
        <mxCell id="WuLsnD5xsuXK1wEOm7aO-26" value="" style="endArrow=none;html=1;rounded=0;" edge="1" parent="1">
          <mxGeometry width="50" height="50" relative="1" as="geometry">
            <mxPoint x="200" y="880" as="sourcePoint" />
            <mxPoint x="200" y="745" as="targetPoint" />
          </mxGeometry>
        </mxCell>
        <mxCell id="WuLsnD5xsuXK1wEOm7aO-31" value="" style="endArrow=none;html=1;rounded=0;exitX=0;exitY=0.5;exitDx=0;exitDy=0;entryX=0.536;entryY=0.963;entryDx=0;entryDy=0;entryPerimeter=0;" edge="1" parent="1" source="WuLsnD5xsuXK1wEOm7aO-32" target="WuLsnD5xsuXK1wEOm7aO-51">
          <mxGeometry width="50" height="50" relative="1" as="geometry">
            <mxPoint x="368.22" y="1034.06" as="sourcePoint" />
            <mxPoint x="586" y="730" as="targetPoint" />
            <Array as="points">
              <mxPoint x="368" y="1057" />
              <mxPoint x="586" y="1057" />
            </Array>
          </mxGeometry>
        </mxCell>
        <mxCell id="WuLsnD5xsuXK1wEOm7aO-32" value="" style="triangle;whiteSpace=wrap;html=1;rotation=-90;" vertex="1" parent="1">
          <mxGeometry x="360" y="978" width="20" height="20" as="geometry" />
        </mxCell>
        <mxCell id="WuLsnD5xsuXK1wEOm7aO-35" value="" style="endArrow=none;html=1;rounded=0;entryX=0.877;entryY=1.025;entryDx=0;entryDy=0;entryPerimeter=0;exitX=0;exitY=0.5;exitDx=0;exitDy=0;" edge="1" parent="1" source="WuLsnD5xsuXK1wEOm7aO-36" target="WuLsnD5xsuXK1wEOm7aO-51">
          <mxGeometry width="50" height="50" relative="1" as="geometry">
            <mxPoint x="130" y="1043" as="sourcePoint" />
            <mxPoint x="655.3999999999999" y="726.6099999999999" as="targetPoint" />
            <Array as="points">
              <mxPoint x="130" y="1077" />
              <mxPoint x="186" y="1076.84" />
              <mxPoint x="360" y="1076.84" />
              <mxPoint x="660" y="1075" />
            </Array>
          </mxGeometry>
        </mxCell>
        <mxCell id="WuLsnD5xsuXK1wEOm7aO-36" value="" style="triangle;whiteSpace=wrap;html=1;rotation=-90;" vertex="1" parent="1">
          <mxGeometry x="120" y="978" width="20" height="20" as="geometry" />
        </mxCell>
        <mxCell id="WuLsnD5xsuXK1wEOm7aO-38" value="" style="endArrow=none;html=1;rounded=0;entryX=0.502;entryY=1.022;entryDx=0;entryDy=0;entryPerimeter=0;exitX=0;exitY=0.5;exitDx=0;exitDy=0;" edge="1" parent="1" source="WuLsnD5xsuXK1wEOm7aO-39" target="WuLsnD5xsuXK1wEOm7aO-42">
          <mxGeometry width="50" height="50" relative="1" as="geometry">
            <mxPoint x="528" y="450" as="sourcePoint" />
            <mxPoint x="460" y="405" as="targetPoint" />
          </mxGeometry>
        </mxCell>
        <mxCell id="WuLsnD5xsuXK1wEOm7aO-39" value="" style="triangle;whiteSpace=wrap;html=1;rotation=90;" vertex="1" parent="1">
          <mxGeometry x="520" y="460" width="20" height="20" as="geometry" />
        </mxCell>
        <mxCell id="WuLsnD5xsuXK1wEOm7aO-40" value="" style="endArrow=none;html=1;rounded=0;exitX=0.688;exitY=-0.023;exitDx=0;exitDy=0;exitPerimeter=0;entryX=0.016;entryY=1.17;entryDx=0;entryDy=0;entryPerimeter=0;" edge="1" parent="1" target="WuLsnD5xsuXK1wEOm7aO-7">
          <mxGeometry width="50" height="50" relative="1" as="geometry">
            <mxPoint x="200" y="476" as="sourcePoint" />
            <mxPoint x="198" y="366" as="targetPoint" />
            <Array as="points">
              <mxPoint x="200" y="336" />
            </Array>
          </mxGeometry>
        </mxCell>
        <mxCell id="WuLsnD5xsuXK1wEOm7aO-41" value="" style="triangle;whiteSpace=wrap;html=1;rotation=90;" vertex="1" parent="1">
          <mxGeometry x="190" y="458" width="20" height="20" as="geometry" />
        </mxCell>
        <mxCell id="WuLsnD5xsuXK1wEOm7aO-53" value="" style="endArrow=none;html=1;rounded=0;entryX=0.859;entryY=1.068;entryDx=0;entryDy=0;entryPerimeter=0;exitX=0;exitY=0.5;exitDx=0;exitDy=0;" edge="1" parent="1" source="WuLsnD5xsuXK1wEOm7aO-34">
          <mxGeometry width="50" height="50" relative="1" as="geometry">
            <mxPoint x="360" y="870" as="sourcePoint" />
            <mxPoint x="359.92999999999995" y="749.768" as="targetPoint" />
            <Array as="points">
              <mxPoint x="358" y="750" />
            </Array>
          </mxGeometry>
        </mxCell>
        <mxCell id="WuLsnD5xsuXK1wEOm7aO-34" value="" style="triangle;whiteSpace=wrap;html=1;rotation=90;" vertex="1" parent="1">
          <mxGeometry x="350" y="880" width="20" height="20" as="geometry" />
        </mxCell>
        <mxCell id="WuLsnD5xsuXK1wEOm7aO-66" value="" style="endArrow=none;html=1;rounded=0;exitX=0.75;exitY=0;exitDx=0;exitDy=0;" edge="1" parent="1" source="WuLsnD5xsuXK1wEOm7aO-14" target="WuLsnD5xsuXK1wEOm7aO-27">
          <mxGeometry width="50" height="50" relative="1" as="geometry">
            <mxPoint x="200" y="940" as="sourcePoint" />
            <mxPoint x="200" y="750" as="targetPoint" />
          </mxGeometry>
        </mxCell>
        <mxCell id="WuLsnD5xsuXK1wEOm7aO-27" value="" style="triangle;whiteSpace=wrap;html=1;rotation=90;" vertex="1" parent="1">
          <mxGeometry x="190" y="880" width="20" height="20" as="geometry" />
        </mxCell>
        <mxCell id="WuLsnD5xsuXK1wEOm7aO-73" value="" style="endArrow=none;html=1;rounded=0;entryX=-0.021;entryY=-0.258;entryDx=0;entryDy=0;entryPerimeter=0;" edge="1" parent="1" target="WuLsnD5xsuXK1wEOm7aO-13">
          <mxGeometry width="50" height="50" relative="1" as="geometry">
            <mxPoint x="530" y="260" as="sourcePoint" />
            <mxPoint x="702.5400000000002" y="-20.001999999999953" as="targetPoint" />
            <Array as="points">
              <mxPoint x="530" y="195" />
            </Array>
          </mxGeometry>
        </mxCell>
        <mxCell id="WuLsnD5xsuXK1wEOm7aO-74" value="" style="triangle;whiteSpace=wrap;html=1;rotation=90;" vertex="1" parent="1">
          <mxGeometry x="520" y="259.96" width="19.95" height="20.04" as="geometry" />
        </mxCell>
      </root>
    </mxGraphModel>
  </diagram>
</mxfile>
